<svg id="visual" viewBox="0 0 900 600" width="900" height="600" xmlns="http://www.w3.org/2000/svg" xmlns:xlink="http://www.w3.org/1999/xlink" version="1.1"><rect x="0" y="0" width="900" height="600" fill="#a8affe"></rect><g transform="translate(429.13059706424303 318.5059953369912)"><path d="M59.2 -76.2C98.2 -67.1 166 -87 219.3 -70.7C272.6 -54.4 311.5 -2 324.8 61.1C338.1 124.2 325.9 198 277.2 222.5C228.4 247.1 143.2 222.4 76 228.1C8.7 233.8 -40.6 269.9 -85.5 267.6C-130.5 265.2 -171 224.3 -171.6 175.5C-172.1 126.7 -132.6 70 -153.1 14C-173.6 -42 -254.2 -97.5 -279.2 -162.8C-304.3 -228.1 -273.8 -303.3 -218 -304.7C-162.2 -306 -81.1 -233.5 -35.5 -178.3C10.1 -123.1 20.3 -85.2 59.2 -76.2" fill="#fff"></path></g></svg>