<svg id="visual" viewBox="0 0 900 600" width="900" height="600" xmlns="http://www.w3.org/2000/svg" xmlns:xlink="http://www.w3.org/1999/xlink" version="1.1"><g transform="translate(452.273873038601 349.066467435822)"><path d="M68.7 -155.9C92.4 -91.7 117.1 -78.3 153.9 -53.8C190.6 -29.4 239.3 6 262.5 57.4C285.7 108.8 283.4 176.2 246.4 206.6C209.3 236.9 137.5 230.2 77.5 234.4C17.5 238.6 -30.7 253.6 -48.7 222.5C-66.8 191.4 -54.6 114.1 -92.5 76.7C-130.3 39.2 -218.1 41.6 -257.1 14.4C-296.1 -12.8 -286.3 -69.5 -249.6 -99C-212.8 -128.5 -149.1 -130.7 -103 -184.7C-56.9 -238.6 -28.5 -344.3 -3 -339.7C22.5 -335.1 45.1 -220.1 68.7 -155.9" fill="#fff"></path></g></svg>