<svg id="visual" viewBox="0 0 900 600" width="900" height="600" xmlns="http://www.w3.org/2000/svg" xmlns:xlink="http://www.w3.org/1999/xlink" version="1.1"><g transform="translate(465.782913652508 317.79077759057856)"><path d="M55.3 -112.9C60.7 -92.8 46.4 -55.6 41.5 -34C36.7 -12.3 41.3 -6.2 53.3 6.9C65.3 20 84.6 40 88.3 59.6C91.9 79.3 80 98.5 62.7 94.8C45.3 91 22.7 64.3 3.6 58.1C-15.5 51.9 -31 66.2 -44.9 67.9C-58.7 69.7 -70.9 58.8 -86.5 45.4C-102.1 32 -121 16 -120.5 0.3C-119.9 -15.3 -99.8 -30.7 -81.5 -39.5C-63.3 -48.3 -46.9 -50.6 -33.6 -66.1C-20.3 -81.6 -10.2 -110.3 7.4 -123.1C25 -136 50 -132.9 55.3 -112.9" fill="#111433"></path></g></svg>