<svg id="visual" viewBox="0 0 900 600" width="900" height="600" xmlns="http://www.w3.org/2000/svg" xmlns:xlink="http://www.w3.org/1999/xlink" version="1.1"><g transform="translate(448.44175124158926 300.39057893439104)"><path d="M81.1 -129.1C81.1 -111.6 40.6 -55.8 55.9 -16.3C71.3 23.2 142.7 46.4 150.4 57C158.1 67.7 102.3 65.8 66.6 86.4C31 106.9 15.5 150 7 140.4C-1.6 130.8 -3.1 68.6 -6 37.4C-8.8 6.2 -13 5.9 -41.5 -4.7C-70.1 -15.3 -123 -36.3 -140.8 -65.6C-158.6 -95 -141.3 -132.9 -112 -140.8C-82.7 -148.8 -41.3 -126.9 -0.4 -126.4C40.6 -125.8 81.1 -146.6 81.1 -129.1" fill="none" stroke="#111433" stroke-width="6"></path></g></svg>