<svg id="visual" viewBox="0 0 900 600" width="900" height="600" xmlns="http://www.w3.org/2000/svg" xmlns:xlink="http://www.w3.org/1999/xlink" version="1.1"><g transform="translate(483.9142213919282 313.4126277641376)"><path d="M127.9 -180.8C163.1 -201.2 187.2 -161.6 187.4 -121.5C187.5 -81.3 163.8 -40.7 163.8 0C163.8 40.7 187.5 81.3 183 114C178.5 146.6 145.8 171.1 110.6 153.8C75.3 136.5 37.7 77.2 13.8 53.3C-10 29.3 -20 40.6 -53.3 56.9C-86.7 73.1 -143.4 94.3 -188.4 85.7C-233.4 77 -266.7 38.5 -251.5 8.8C-236.4 -21 -172.7 -42 -136 -64.9C-99.2 -87.9 -89.4 -112.8 -71.2 -102.3C-53 -91.8 -26.5 -45.9 9.9 -63.1C46.3 -80.3 92.7 -160.5 127.9 -180.8" fill="none" stroke="#111433" stroke-width="6"></path></g></svg>