<svg id="visual" viewBox="0 0 600 600" width="900" height="600" xmlns="http://www.w3.org/2000/svg" xmlns:xlink="http://www.w3.org/1999/xlink" version="1.1"><g transform="translate(460.23068248482684 305.68107921952145)"><path d="M41.5 -72.1C58.7 -62 80.9 -60.7 80.6 -50.2C80.4 -39.7 57.7 -19.8 56.8 -0.5C56 18.8 76.9 37.7 83.3 58.9C89.7 80.1 81.6 103.7 65.3 94.5C49 85.2 24.5 43.1 0.5 42.2C-23.5 41.4 -47 81.7 -68.7 94.1C-90.3 106.4 -110.1 90.7 -105.2 70.4C-100.3 50 -70.6 25 -49 12.5C-27.3 0 -13.7 0 -16.6 -16.9C-19.5 -33.8 -39 -67.6 -39 -87.6C-39 -107.5 -19.5 -113.8 -3.7 -107.4C12.2 -101.1 24.3 -82.1 41.5 -72.1" fill="none" stroke="#111433" stroke-width="6"></path></g></svg>