<svg id="visual" viewBox="0 0 500 400" width="500" height="400" xmlns="http://www.w3.org/2000/svg" xmlns:xlink="http://www.w3.org/1999/xlink" version="1.1"><g transform="translate(239.36391989261813 232.05341360599593)"><path d="M9.7 -39.3C19.1 -11.4 37.7 -22 61.3 -21.8C84.9 -21.7 113.4 -10.8 130.5 9.8C147.5 30.5 153 61 136.7 73.8C120.5 86.7 82.5 81.9 56.1 91.5C29.7 101.1 14.8 125 7.4 112.2C0 99.3 0 49.7 -15.6 33.8C-31.2 18 -62.4 36 -85.5 36C-108.7 36 -123.8 18 -125.1 -0.7C-126.4 -19.5 -113.9 -39 -107.3 -67.7C-100.7 -96.4 -100.1 -134.4 -83.2 -158C-66.3 -181.6 -33.2 -190.8 -16.5 -162.2C0.2 -133.6 0.3 -67.2 9.7 -39.3" fill="#111433"></path></g></svg>