<svg id="visual" viewBox="0 0 300 200" width="300" height="200" xmlns="http://www.w3.org/2000/svg" xmlns:xlink="http://www.w3.org/1999/xlink" version="1.1"><g transform="translate(143.26599149794527 93.72309752417073)"><path d="M17.8 -24.1C23.5 -27.5 29.1 -23.7 35.3 -18.5C41.4 -13.3 48.2 -6.7 56.9 5C65.5 16.7 76.1 33.3 74.4 46.3C72.7 59.3 58.9 68.6 44.4 64.5C30 60.3 15 42.6 1.3 40.5C-12.5 38.3 -25 51.6 -37.8 54.9C-50.7 58.1 -63.9 51.3 -60.6 40.5C-57.4 29.7 -37.7 14.8 -34.8 1.7C-31.9 -11.5 -45.8 -23 -49.4 -34.4C-53 -45.8 -46.3 -57.1 -36.3 -51.4C-26.3 -45.6 -13.2 -22.8 -3.6 -16.6C6 -10.4 12 -20.8 17.8 -24.1" fill="none" stroke="#fff" stroke-width="6"></path></g></svg>