<svg id="visual" viewBox="0 0 300 200" width="300" height="200" xmlns="http://www.w3.org/2000/svg" xmlns:xlink="http://www.w3.org/1999/xlink" version="1.1"><g transform="translate(139.50532077221357 98.81836577178663)"><path d="M27.1 -44.1C41.5 -38.6 64.1 -44.3 69.9 -38.8C75.7 -33.3 64.9 -16.7 63.4 -0.8C62 15 70 30 63.1 33.8C56.3 37.5 34.6 30 21.7 35.7C8.7 41.3 4.3 60.2 -3.9 67C-12.2 73.7 -24.3 68.5 -24.3 55.3C-24.3 42.1 -12.2 21.1 -9.6 10.5C-7 0 -14 0 -24.8 -6.2C-35.7 -12.5 -50.3 -25 -50.6 -31.6C-51 -38.3 -37 -39.1 -26.2 -46.6C-15.3 -54.2 -7.7 -68.6 -0.7 -67.5C6.3 -66.3 12.7 -49.6 27.1 -44.1" fill="none" stroke="#fff" stroke-width="6"></path></g></svg>